<svg width="40" height="40" viewBox="0 0 40 40" fill="none" xmlns="http://www.w3.org/2000/svg">
<g clip-path="url(#clip0_1522_143)">
<path d="M8.23438 14.2656C9.21094 15.2414 10.7937 15.2422 11.7695 14.2657L17.5 8.53906V27.5C17.5 28.8805 18.6195 30 20 30C21.3805 30 22.5 28.8805 22.5 27.5V8.53906L28.2328 14.2719C29.2086 15.2477 30.7914 15.2477 31.768 14.2718C32.7438 13.296 32.7438 11.7132 31.768 10.7366L21.768 0.736641C21.2812 0.244141 20.6406 0 20 0C19.3594 0 18.7188 0.244141 18.2344 0.732422L8.23438 10.7344C7.25625 11.7109 7.25625 13.2891 8.23438 14.2656ZM37.5 27.5H25C25 30.2617 22.7617 32.5 20 32.5C17.2383 32.5 15 30.2617 15 27.5H2.5C1.11953 27.5 0 28.6195 0 30V37.5C0 38.8805 1.11953 40 2.5 40H37.5C38.8805 40 40 38.8805 40 37.5V30C40 28.6172 38.8828 27.5 37.5 27.5ZM33.75 35.625C32.7188 35.625 31.875 34.7812 31.875 33.75C31.875 32.7188 32.7188 31.875 33.75 31.875C34.7812 31.875 35.625 32.7188 35.625 33.75C35.625 34.7812 34.7812 35.625 33.75 35.625Z" fill="#9B4A46"/>
</g>
<defs>
<clipPath id="clip0_1522_143">
<rect width="40" height="40" fill="white"/>
</clipPath>
</defs>
</svg>
