<svg width="159" height="20" viewBox="0 0 159 20" fill="none" xmlns="http://www.w3.org/2000/svg">
<path d="M7.01172 2.93945L2.95898 15H0.117188L5.42969 0.78125H7.24609L7.01172 2.93945ZM10.4004 15L6.32812 2.93945L6.08398 0.78125H7.91016L13.252 15H10.4004ZM10.2148 9.7168V11.8359H2.58789V9.7168H10.2148ZM17.0996 6.5918V15H14.5215V4.43359H16.9629L17.0996 6.5918ZM20.3125 4.36523L20.2734 6.76758C20.1302 6.74154 19.9674 6.72201 19.7852 6.70898C19.6094 6.69596 19.4434 6.68945 19.2871 6.68945C18.89 6.68945 18.5417 6.74479 18.2422 6.85547C17.9427 6.95964 17.6921 7.11263 17.4902 7.31445C17.2949 7.51628 17.1452 7.76367 17.041 8.05664C16.9368 8.3431 16.8783 8.66862 16.8652 9.0332L16.3086 8.96484C16.3086 8.29427 16.377 7.67253 16.5137 7.09961C16.6504 6.52669 16.849 6.02539 17.1094 5.5957C17.3698 5.16602 17.6953 4.83398 18.0859 4.59961C18.4831 4.35872 18.9388 4.23828 19.4531 4.23828C19.5964 4.23828 19.7493 4.2513 19.9121 4.27734C20.0814 4.29688 20.2148 4.32617 20.3125 4.36523ZM24.3066 6.5918V15H21.7285V4.43359H24.1699L24.3066 6.5918ZM27.5195 4.36523L27.4805 6.76758C27.3372 6.74154 27.1745 6.72201 26.9922 6.70898C26.8164 6.69596 26.6504 6.68945 26.4941 6.68945C26.097 6.68945 25.7487 6.74479 25.4492 6.85547C25.1497 6.95964 24.8991 7.11263 24.6973 7.31445C24.502 7.51628 24.3522 7.76367 24.248 8.05664C24.1439 8.3431 24.0853 8.66862 24.0723 9.0332L23.5156 8.96484C23.5156 8.29427 23.584 7.67253 23.7207 7.09961C23.8574 6.52669 24.056 6.02539 24.3164 5.5957C24.5768 5.16602 24.9023 4.83398 25.293 4.59961C25.6901 4.35872 26.1458 4.23828 26.6602 4.23828C26.8034 4.23828 26.9564 4.2513 27.1191 4.27734C27.2884 4.29688 27.4219 4.32617 27.5195 4.36523ZM34.4238 12.7539V7.88086C34.4238 7.52279 34.362 7.21354 34.2383 6.95312C34.1146 6.69271 33.9258 6.49089 33.6719 6.34766C33.418 6.20443 33.0957 6.13281 32.7051 6.13281C32.36 6.13281 32.0573 6.19141 31.7969 6.30859C31.543 6.42578 31.3477 6.5918 31.2109 6.80664C31.0742 7.01497 31.0059 7.25586 31.0059 7.5293H28.418C28.418 7.0931 28.5221 6.67969 28.7305 6.28906C28.9388 5.89193 29.235 5.54036 29.6191 5.23438C30.0098 4.92188 30.4753 4.67773 31.0156 4.50195C31.5625 4.32617 32.1745 4.23828 32.8516 4.23828C33.6523 4.23828 34.3652 4.375 34.9902 4.64844C35.6217 4.91536 36.1165 5.31901 36.4746 5.85938C36.8392 6.39974 37.0215 7.08008 37.0215 7.90039V12.5098C37.0215 13.0371 37.054 13.4896 37.1191 13.8672C37.1908 14.2383 37.2949 14.5605 37.4316 14.834V15H34.8047C34.681 14.7331 34.5866 14.3945 34.5215 13.9844C34.4564 13.5677 34.4238 13.1576 34.4238 12.7539ZM34.7852 8.56445L34.8047 10.0977H33.1738C32.7702 10.0977 32.4154 10.14 32.1094 10.2246C31.8034 10.3027 31.5527 10.4199 31.3574 10.5762C31.1621 10.7259 31.0156 10.9082 30.918 11.123C30.8203 11.3314 30.7715 11.569 30.7715 11.8359C30.7715 12.0964 30.8301 12.3307 30.9473 12.5391C31.071 12.7474 31.2467 12.9134 31.4746 13.0371C31.709 13.1543 31.9824 13.2129 32.2949 13.2129C32.7507 13.2129 33.1478 13.1217 33.4863 12.9395C33.8249 12.7507 34.0885 12.5228 34.2773 12.2559C34.4661 11.9889 34.5671 11.735 34.5801 11.4941L35.3223 12.6074C35.2311 12.8743 35.0944 13.1576 34.9121 13.457C34.7298 13.7565 34.4954 14.0365 34.209 14.2969C33.9225 14.5573 33.5775 14.7721 33.1738 14.9414C32.7702 15.1107 32.3014 15.1953 31.7676 15.1953C31.084 15.1953 30.472 15.0586 29.9316 14.7852C29.3913 14.5117 28.9648 14.1374 28.6523 13.6621C28.3398 13.1868 28.1836 12.6465 28.1836 12.041C28.1836 11.4811 28.2878 10.9863 28.4961 10.5566C28.7044 10.127 29.0137 9.76562 29.4238 9.47266C29.834 9.17318 30.3418 8.94857 30.9473 8.79883C31.5592 8.64258 32.2591 8.56445 33.0469 8.56445H34.7852ZM45.1562 12.1094C45.1562 11.888 45.0977 11.6895 44.9805 11.5137C44.8633 11.3379 44.6419 11.1784 44.3164 11.0352C43.9974 10.8854 43.5286 10.7454 42.9102 10.6152C42.3633 10.498 41.8587 10.3516 41.3965 10.1758C40.9342 10 40.5371 9.78841 40.2051 9.54102C39.873 9.28711 39.6126 8.99089 39.4238 8.65234C39.2415 8.30729 39.1504 7.91016 39.1504 7.46094C39.1504 7.02474 39.2448 6.61458 39.4336 6.23047C39.6224 5.83984 39.8958 5.49805 40.2539 5.20508C40.612 4.9056 41.0482 4.67122 41.5625 4.50195C42.0768 4.32617 42.6562 4.23828 43.3008 4.23828C44.1992 4.23828 44.9707 4.38477 45.6152 4.67773C46.2663 4.9707 46.7643 5.37435 47.1094 5.88867C47.4544 6.39648 47.627 6.9694 47.627 7.60742H45.0488C45.0488 7.32747 44.9837 7.07357 44.8535 6.8457C44.7298 6.61784 44.5378 6.43555 44.2773 6.29883C44.0169 6.1556 43.6882 6.08398 43.291 6.08398C42.9329 6.08398 42.6302 6.14258 42.3828 6.25977C42.1419 6.37695 41.9596 6.52995 41.8359 6.71875C41.7122 6.90755 41.6504 7.11589 41.6504 7.34375C41.6504 7.51302 41.6829 7.66602 41.748 7.80273C41.8197 7.93294 41.9336 8.05339 42.0898 8.16406C42.2461 8.27474 42.4577 8.37565 42.7246 8.4668C42.998 8.55794 43.3333 8.64583 43.7305 8.73047C44.5182 8.88672 45.2051 9.09505 45.791 9.35547C46.3835 9.60938 46.8457 9.94792 47.1777 10.3711C47.5098 10.7943 47.6758 11.3346 47.6758 11.9922C47.6758 12.4609 47.5749 12.8906 47.373 13.2812C47.1712 13.6654 46.8783 14.0007 46.4941 14.2871C46.11 14.5736 45.651 14.7982 45.1172 14.9609C44.5833 15.1172 43.9811 15.1953 43.3105 15.1953C42.3405 15.1953 41.5202 15.0228 40.8496 14.6777C40.179 14.3262 39.6712 13.8835 39.3262 13.3496C38.9811 12.8092 38.8086 12.2493 38.8086 11.6699H41.2793C41.2988 12.0801 41.4095 12.4089 41.6113 12.6562C41.8132 12.9036 42.0671 13.0827 42.373 13.1934C42.6855 13.2975 43.0143 13.3496 43.3594 13.3496C43.75 13.3496 44.0788 13.2975 44.3457 13.1934C44.6126 13.0827 44.8145 12.9362 44.9512 12.7539C45.0879 12.5651 45.1562 12.3503 45.1562 12.1094ZM54.6387 4.43359V6.28906H48.584V4.43359H54.6387ZM50.2051 1.83594H52.793V11.9531C52.793 12.2656 52.8353 12.5065 52.9199 12.6758C53.0046 12.8451 53.1315 12.959 53.3008 13.0176C53.4701 13.0762 53.6719 13.1055 53.9062 13.1055C54.0755 13.1055 54.2318 13.0957 54.375 13.0762C54.5182 13.0566 54.6387 13.0371 54.7363 13.0176L54.7461 14.9512C54.5312 15.0228 54.2871 15.0814 54.0137 15.127C53.7467 15.1725 53.444 15.1953 53.1055 15.1953C52.526 15.1953 52.0182 15.0977 51.582 14.9023C51.1458 14.7005 50.8073 14.3783 50.5664 13.9355C50.3255 13.4863 50.2051 12.8939 50.2051 12.1582V1.83594ZM61.1035 15.1953C60.3027 15.1953 59.5833 15.0651 58.9453 14.8047C58.3073 14.5443 57.7637 14.1829 57.3145 13.7207C56.8717 13.252 56.5299 12.7083 56.2891 12.0898C56.0547 11.4648 55.9375 10.7943 55.9375 10.0781V9.6875C55.9375 8.8737 56.0547 8.13477 56.2891 7.4707C56.5234 6.80013 56.8555 6.22396 57.2852 5.74219C57.7148 5.26042 58.2292 4.88932 58.8281 4.62891C59.4271 4.36849 60.0879 4.23828 60.8105 4.23828C61.5592 4.23828 62.2201 4.36523 62.793 4.61914C63.3659 4.86654 63.8444 5.2181 64.2285 5.67383C64.6126 6.12956 64.9023 6.67643 65.0977 7.31445C65.293 7.94596 65.3906 8.64583 65.3906 9.41406V10.498H57.1094V8.7207H62.8516V8.52539C62.8385 8.11523 62.7604 7.74089 62.6172 7.40234C62.474 7.05729 62.2526 6.78385 61.9531 6.58203C61.6536 6.3737 61.2663 6.26953 60.791 6.26953C60.4069 6.26953 60.0716 6.35417 59.7852 6.52344C59.5052 6.6862 59.2708 6.92057 59.082 7.22656C58.8997 7.52604 58.763 7.88411 58.6719 8.30078C58.5807 8.71745 58.5352 9.17969 58.5352 9.6875V10.0781C58.5352 10.5208 58.5938 10.931 58.7109 11.3086C58.8346 11.6862 59.0137 12.015 59.248 12.2949C59.4889 12.5684 59.7754 12.7832 60.1074 12.9395C60.446 13.0892 60.8301 13.1641 61.2598 13.1641C61.8001 13.1641 62.2884 13.0599 62.7246 12.8516C63.1673 12.6367 63.5514 12.321 63.877 11.9043L65.1758 13.252C64.9544 13.5775 64.6549 13.89 64.2773 14.1895C63.9062 14.4889 63.457 14.7331 62.9297 14.9219C62.4023 15.1042 61.7936 15.1953 61.1035 15.1953ZM77.9199 12.7539V7.88086C77.9199 7.52279 77.8581 7.21354 77.7344 6.95312C77.6107 6.69271 77.4219 6.49089 77.168 6.34766C76.9141 6.20443 76.5918 6.13281 76.2012 6.13281C75.8561 6.13281 75.5534 6.19141 75.293 6.30859C75.0391 6.42578 74.8438 6.5918 74.707 6.80664C74.5703 7.01497 74.502 7.25586 74.502 7.5293H71.9141C71.9141 7.0931 72.0182 6.67969 72.2266 6.28906C72.4349 5.89193 72.7311 5.54036 73.1152 5.23438C73.5059 4.92188 73.9714 4.67773 74.5117 4.50195C75.0586 4.32617 75.6706 4.23828 76.3477 4.23828C77.1484 4.23828 77.8613 4.375 78.4863 4.64844C79.1178 4.91536 79.6126 5.31901 79.9707 5.85938C80.3353 6.39974 80.5176 7.08008 80.5176 7.90039V12.5098C80.5176 13.0371 80.5501 13.4896 80.6152 13.8672C80.6868 14.2383 80.791 14.5605 80.9277 14.834V15H78.3008C78.1771 14.7331 78.0827 14.3945 78.0176 13.9844C77.9525 13.5677 77.9199 13.1576 77.9199 12.7539ZM78.2812 8.56445L78.3008 10.0977H76.6699C76.2663 10.0977 75.9115 10.14 75.6055 10.2246C75.2995 10.3027 75.0488 10.4199 74.8535 10.5762C74.6582 10.7259 74.5117 10.9082 74.4141 11.123C74.3164 11.3314 74.2676 11.569 74.2676 11.8359C74.2676 12.0964 74.3262 12.3307 74.4434 12.5391C74.5671 12.7474 74.7428 12.9134 74.9707 13.0371C75.2051 13.1543 75.4785 13.2129 75.791 13.2129C76.2467 13.2129 76.6439 13.1217 76.9824 12.9395C77.321 12.7507 77.5846 12.5228 77.7734 12.2559C77.9622 11.9889 78.0632 11.735 78.0762 11.4941L78.8184 12.6074C78.7272 12.8743 78.5905 13.1576 78.4082 13.457C78.2259 13.7565 77.9915 14.0365 77.7051 14.2969C77.4186 14.5573 77.0736 14.7721 76.6699 14.9414C76.2663 15.1107 75.7975 15.1953 75.2637 15.1953C74.5801 15.1953 73.9681 15.0586 73.4277 14.7852C72.8874 14.5117 72.4609 14.1374 72.1484 13.6621C71.8359 13.1868 71.6797 12.6465 71.6797 12.041C71.6797 11.4811 71.7839 10.9863 71.9922 10.5566C72.2005 10.127 72.5098 9.76562 72.9199 9.47266C73.3301 9.17318 73.8379 8.94857 74.4434 8.79883C75.0553 8.64258 75.7552 8.56445 76.543 8.56445H78.2812ZM90.5566 4.43359V15H87.9688V4.43359H90.5566ZM87.793 1.66992C87.793 1.28581 87.9232 0.966797 88.1836 0.712891C88.4505 0.458984 88.8086 0.332031 89.2578 0.332031C89.707 0.332031 90.0618 0.458984 90.3223 0.712891C90.5892 0.966797 90.7227 1.28581 90.7227 1.66992C90.7227 2.04753 90.5892 2.36328 90.3223 2.61719C90.0618 2.87109 89.707 2.99805 89.2578 2.99805C88.8086 2.99805 88.4505 2.87109 88.1836 2.61719C87.9232 2.36328 87.793 2.04753 87.793 1.66992ZM95.5859 6.60156V15H93.0078V4.43359H95.4395L95.5859 6.60156ZM95.2051 9.33594H94.4141C94.4141 8.60026 94.502 7.92318 94.6777 7.30469C94.86 6.6862 95.127 6.14909 95.4785 5.69336C95.8301 5.23112 96.263 4.87305 96.7773 4.61914C97.2982 4.36523 97.9004 4.23828 98.584 4.23828C99.0592 4.23828 99.4954 4.3099 99.8926 4.45312C100.29 4.58984 100.632 4.80794 100.918 5.10742C101.211 5.40039 101.436 5.78451 101.592 6.25977C101.748 6.72852 101.826 7.29167 101.826 7.94922V15H99.248V8.21289C99.248 7.7181 99.1764 7.33073 99.0332 7.05078C98.8965 6.77083 98.6979 6.57552 98.4375 6.46484C98.1771 6.34766 97.8646 6.28906 97.5 6.28906C97.0964 6.28906 96.748 6.37044 96.4551 6.5332C96.1686 6.68945 95.931 6.90755 95.7422 7.1875C95.5599 7.46745 95.4232 7.78971 95.332 8.1543C95.2474 8.51888 95.2051 8.91276 95.2051 9.33594ZM101.631 8.85742L100.566 9.05273C100.573 8.38867 100.664 7.76693 100.84 7.1875C101.016 6.60156 101.273 6.09049 101.611 5.6543C101.956 5.21159 102.383 4.86654 102.891 4.61914C103.405 4.36523 103.997 4.23828 104.668 4.23828C105.189 4.23828 105.658 4.31315 106.074 4.46289C106.497 4.60612 106.859 4.83724 107.158 5.15625C107.458 5.46875 107.686 5.87565 107.842 6.37695C108.005 6.87826 108.086 7.49023 108.086 8.21289V15H105.488V8.20312C105.488 7.6888 105.417 7.29492 105.273 7.02148C105.137 6.74805 104.938 6.55924 104.678 6.45508C104.417 6.3444 104.111 6.28906 103.76 6.28906C103.402 6.28906 103.089 6.35742 102.822 6.49414C102.562 6.62435 102.34 6.80664 102.158 7.04102C101.982 7.27539 101.849 7.54883 101.758 7.86133C101.673 8.16732 101.631 8.49935 101.631 8.85742ZM116.221 12.7539V7.88086C116.221 7.52279 116.159 7.21354 116.035 6.95312C115.911 6.69271 115.723 6.49089 115.469 6.34766C115.215 6.20443 114.893 6.13281 114.502 6.13281C114.157 6.13281 113.854 6.19141 113.594 6.30859C113.34 6.42578 113.145 6.5918 113.008 6.80664C112.871 7.01497 112.803 7.25586 112.803 7.5293H110.215C110.215 7.0931 110.319 6.67969 110.527 6.28906C110.736 5.89193 111.032 5.54036 111.416 5.23438C111.807 4.92188 112.272 4.67773 112.812 4.50195C113.359 4.32617 113.971 4.23828 114.648 4.23828C115.449 4.23828 116.162 4.375 116.787 4.64844C117.419 4.91536 117.913 5.31901 118.271 5.85938C118.636 6.39974 118.818 7.08008 118.818 7.90039V12.5098C118.818 13.0371 118.851 13.4896 118.916 13.8672C118.988 14.2383 119.092 14.5605 119.229 14.834V15H116.602C116.478 14.7331 116.383 14.3945 116.318 13.9844C116.253 13.5677 116.221 13.1576 116.221 12.7539ZM116.582 8.56445L116.602 10.0977H114.971C114.567 10.0977 114.212 10.14 113.906 10.2246C113.6 10.3027 113.35 10.4199 113.154 10.5762C112.959 10.7259 112.812 10.9082 112.715 11.123C112.617 11.3314 112.568 11.569 112.568 11.8359C112.568 12.0964 112.627 12.3307 112.744 12.5391C112.868 12.7474 113.044 12.9134 113.271 13.0371C113.506 13.1543 113.779 13.2129 114.092 13.2129C114.548 13.2129 114.945 13.1217 115.283 12.9395C115.622 12.7507 115.885 12.5228 116.074 12.2559C116.263 11.9889 116.364 11.735 116.377 11.4941L117.119 12.6074C117.028 12.8743 116.891 13.1576 116.709 13.457C116.527 13.7565 116.292 14.0365 116.006 14.2969C115.719 14.5573 115.374 14.7721 114.971 14.9414C114.567 15.1107 114.098 15.1953 113.564 15.1953C112.881 15.1953 112.269 15.0586 111.729 14.7852C111.188 14.5117 110.762 14.1374 110.449 13.6621C110.137 13.1868 109.98 12.6465 109.98 12.041C109.98 11.4811 110.085 10.9863 110.293 10.5566C110.501 10.127 110.811 9.76562 111.221 9.47266C111.631 9.17318 112.139 8.94857 112.744 8.79883C113.356 8.64258 114.056 8.56445 114.844 8.56445H116.582ZM127.861 4.43359H130.205V14.6777C130.205 15.6348 129.997 16.4453 129.58 17.1094C129.17 17.7799 128.594 18.2878 127.852 18.6328C127.109 18.9844 126.247 19.1602 125.264 19.1602C124.84 19.1602 124.382 19.1016 123.887 18.9844C123.398 18.8672 122.926 18.6816 122.471 18.4277C122.021 18.1803 121.647 17.8581 121.348 17.4609L122.51 15.9375C122.861 16.3477 123.258 16.6569 123.701 16.8652C124.144 17.0801 124.622 17.1875 125.137 17.1875C125.658 17.1875 126.1 17.0898 126.465 16.8945C126.836 16.7057 127.119 16.4258 127.314 16.0547C127.516 15.6901 127.617 15.2409 127.617 14.707V6.8457L127.861 4.43359ZM120.723 9.84375V9.63867C120.723 8.83138 120.82 8.09896 121.016 7.44141C121.211 6.77734 121.491 6.20768 121.855 5.73242C122.227 5.25716 122.673 4.88932 123.193 4.62891C123.721 4.36849 124.313 4.23828 124.971 4.23828C125.667 4.23828 126.253 4.36523 126.729 4.61914C127.21 4.87305 127.607 5.23438 127.92 5.70312C128.239 6.17188 128.486 6.72852 128.662 7.37305C128.844 8.01107 128.984 8.71419 129.082 9.48242V10.0391C128.991 10.7878 128.844 11.4746 128.643 12.0996C128.447 12.7246 128.187 13.2715 127.861 13.7402C127.536 14.2025 127.132 14.5605 126.65 14.8145C126.169 15.0684 125.602 15.1953 124.951 15.1953C124.3 15.1953 123.714 15.0618 123.193 14.7949C122.673 14.528 122.227 14.1536 121.855 13.6719C121.491 13.1901 121.211 12.6237 121.016 11.9727C120.82 11.3216 120.723 10.612 120.723 9.84375ZM123.301 9.63867V9.84375C123.301 10.2995 123.346 10.7259 123.438 11.123C123.529 11.5202 123.669 11.8717 123.857 12.1777C124.046 12.4772 124.284 12.7116 124.57 12.8809C124.857 13.0501 125.199 13.1348 125.596 13.1348C126.13 13.1348 126.566 13.0241 126.904 12.8027C127.249 12.5749 127.51 12.2656 127.686 11.875C127.868 11.4779 127.985 11.0319 128.037 10.5371V9.00391C128.005 8.61328 127.933 8.25195 127.822 7.91992C127.718 7.58789 127.572 7.30143 127.383 7.06055C127.194 6.81966 126.953 6.63086 126.66 6.49414C126.367 6.35742 126.019 6.28906 125.615 6.28906C125.225 6.28906 124.883 6.37695 124.59 6.55273C124.297 6.72201 124.056 6.95964 123.867 7.26562C123.678 7.57161 123.535 7.92643 123.438 8.33008C123.346 8.73372 123.301 9.16992 123.301 9.63867ZM137.275 15.1953C136.475 15.1953 135.755 15.0651 135.117 14.8047C134.479 14.5443 133.936 14.1829 133.486 13.7207C133.044 13.252 132.702 12.7083 132.461 12.0898C132.227 11.4648 132.109 10.7943 132.109 10.0781V9.6875C132.109 8.8737 132.227 8.13477 132.461 7.4707C132.695 6.80013 133.027 6.22396 133.457 5.74219C133.887 5.26042 134.401 4.88932 135 4.62891C135.599 4.36849 136.26 4.23828 136.982 4.23828C137.731 4.23828 138.392 4.36523 138.965 4.61914C139.538 4.86654 140.016 5.2181 140.4 5.67383C140.785 6.12956 141.074 6.67643 141.27 7.31445C141.465 7.94596 141.562 8.64583 141.562 9.41406V10.498H133.281V8.7207H139.023V8.52539C139.01 8.11523 138.932 7.74089 138.789 7.40234C138.646 7.05729 138.424 6.78385 138.125 6.58203C137.826 6.3737 137.438 6.26953 136.963 6.26953C136.579 6.26953 136.243 6.35417 135.957 6.52344C135.677 6.6862 135.443 6.92057 135.254 7.22656C135.072 7.52604 134.935 7.88411 134.844 8.30078C134.753 8.71745 134.707 9.17969 134.707 9.6875V10.0781C134.707 10.5208 134.766 10.931 134.883 11.3086C135.007 11.6862 135.186 12.015 135.42 12.2949C135.661 12.5684 135.947 12.7832 136.279 12.9395C136.618 13.0892 137.002 13.1641 137.432 13.1641C137.972 13.1641 138.46 13.0599 138.896 12.8516C139.339 12.6367 139.723 12.321 140.049 11.9043L141.348 13.252C141.126 13.5775 140.827 13.89 140.449 14.1895C140.078 14.4889 139.629 14.7331 139.102 14.9219C138.574 15.1042 137.965 15.1953 137.275 15.1953ZM145.859 6.60156V15H143.281V4.43359H145.713L145.859 6.60156ZM145.479 9.33594H144.688C144.688 8.60026 144.775 7.92318 144.951 7.30469C145.133 6.6862 145.4 6.14909 145.752 5.69336C146.104 5.23112 146.536 4.87305 147.051 4.61914C147.572 4.36523 148.174 4.23828 148.857 4.23828C149.333 4.23828 149.769 4.3099 150.166 4.45312C150.563 4.58984 150.905 4.80794 151.191 5.10742C151.484 5.40039 151.709 5.78451 151.865 6.25977C152.021 6.72852 152.1 7.29167 152.1 7.94922V15H149.521V8.21289C149.521 7.7181 149.45 7.33073 149.307 7.05078C149.17 6.77083 148.971 6.57552 148.711 6.46484C148.451 6.34766 148.138 6.28906 147.773 6.28906C147.37 6.28906 147.021 6.37044 146.729 6.5332C146.442 6.68945 146.204 6.90755 146.016 7.1875C145.833 7.46745 145.697 7.78971 145.605 8.1543C145.521 8.51888 145.479 8.91276 145.479 9.33594ZM151.904 8.85742L150.84 9.05273C150.846 8.38867 150.938 7.76693 151.113 7.1875C151.289 6.60156 151.546 6.09049 151.885 5.6543C152.23 5.21159 152.656 4.86654 153.164 4.61914C153.678 4.36523 154.271 4.23828 154.941 4.23828C155.462 4.23828 155.931 4.31315 156.348 4.46289C156.771 4.60612 157.132 4.83724 157.432 5.15625C157.731 5.46875 157.959 5.87565 158.115 6.37695C158.278 6.87826 158.359 7.49023 158.359 8.21289V15H155.762V8.20312C155.762 7.6888 155.69 7.29492 155.547 7.02148C155.41 6.74805 155.212 6.55924 154.951 6.45508C154.691 6.3444 154.385 6.28906 154.033 6.28906C153.675 6.28906 153.363 6.35742 153.096 6.49414C152.835 6.62435 152.614 6.80664 152.432 7.04102C152.256 7.27539 152.122 7.54883 152.031 7.86133C151.947 8.16732 151.904 8.49935 151.904 8.85742Z" fill="#A2A2A2"/>
</svg>
