<svg width="80" height="23" viewBox="0 0 80 23" fill="none" xmlns="http://www.w3.org/2000/svg">
<path d="M4.06445 0.671875V22H0.0361328V0.671875H4.06445ZM12.6631 9.88574V13.0645H3.00977V9.88574H12.6631ZM13.791 0.671875V3.85059H3.00977V0.671875H13.791ZM20.0898 9.40234V22H16.2227V6.15039H19.8701L20.0898 9.40234ZM19.5186 13.5039H18.332C18.332 12.4004 18.4639 11.3848 18.7275 10.457C19.001 9.5293 19.4014 8.72363 19.9287 8.04004C20.4561 7.34668 21.1055 6.80957 21.877 6.42871C22.6582 6.04785 23.5615 5.85742 24.5869 5.85742C25.2998 5.85742 25.9541 5.96484 26.5498 6.17969C27.1455 6.38477 27.6582 6.71191 28.0879 7.16113C28.5273 7.60059 28.8643 8.17676 29.0986 8.88965C29.333 9.59277 29.4502 10.4375 29.4502 11.4238V22H25.583V11.8193C25.583 11.0771 25.4756 10.4961 25.2607 10.0762C25.0557 9.65625 24.7578 9.36328 24.3672 9.19727C23.9766 9.02148 23.5078 8.93359 22.9609 8.93359C22.3555 8.93359 21.833 9.05566 21.3936 9.2998C20.9639 9.53418 20.6074 9.86133 20.3242 10.2812C20.0508 10.7012 19.8457 11.1846 19.709 11.7314C19.582 12.2783 19.5186 12.8691 19.5186 13.5039ZM29.1572 12.7861L27.5605 13.0791C27.5703 12.083 27.707 11.1504 27.9707 10.2812C28.2344 9.40234 28.6201 8.63574 29.1279 7.98145C29.6455 7.31738 30.2852 6.7998 31.0469 6.42871C31.8184 6.04785 32.707 5.85742 33.7129 5.85742C34.4941 5.85742 35.1973 5.96973 35.8223 6.19434C36.457 6.40918 36.999 6.75586 37.4482 7.23438C37.8975 7.70312 38.2393 8.31348 38.4736 9.06543C38.7178 9.81738 38.8398 10.7354 38.8398 11.8193V22H34.9434V11.8047C34.9434 11.0332 34.8359 10.4424 34.6211 10.0322C34.416 9.62207 34.1182 9.33887 33.7275 9.18262C33.3369 9.0166 32.8779 8.93359 32.3506 8.93359C31.8135 8.93359 31.3447 9.03613 30.9443 9.24121C30.5537 9.43652 30.2217 9.70996 29.9482 10.0615C29.6846 10.4131 29.4844 10.8232 29.3477 11.292C29.2207 11.751 29.1572 12.249 29.1572 12.7861Z" fill="white"/>
<path d="M53.7666 16.4629C53.7666 16.0527 53.7031 15.6865 53.5762 15.3643C53.459 15.0322 53.2393 14.7344 52.917 14.4707C52.6045 14.1973 52.1602 13.9336 51.584 13.6797C51.0176 13.416 50.2852 13.1426 49.3867 12.8594C48.3906 12.5469 47.4629 12.1953 46.6035 11.8047C45.7441 11.4141 44.9873 10.96 44.333 10.4424C43.6885 9.9248 43.1855 9.3291 42.8242 8.65527C42.4629 7.97168 42.2822 7.18066 42.2822 6.28223C42.2822 5.40332 42.4678 4.60254 42.8389 3.87988C43.2197 3.15723 43.7568 2.53711 44.4502 2.01953C45.1436 1.49219 45.959 1.08691 46.8965 0.803711C47.8438 0.520508 48.8887 0.378906 50.0312 0.378906C51.6133 0.378906 52.9805 0.666992 54.1328 1.24316C55.2949 1.81934 56.1934 2.60059 56.8281 3.58691C57.4629 4.57324 57.7803 5.68164 57.7803 6.91211H53.7666C53.7666 6.24805 53.625 5.66211 53.3418 5.1543C53.0684 4.64648 52.6484 4.24609 52.082 3.95312C51.5254 3.66016 50.8223 3.51367 49.9727 3.51367C49.1523 3.51367 48.4688 3.63574 47.9219 3.87988C47.3848 4.12402 46.9795 4.45605 46.7061 4.87598C46.4424 5.2959 46.3105 5.76465 46.3105 6.28223C46.3105 6.67285 46.4033 7.02441 46.5889 7.33691C46.7744 7.63965 47.0527 7.92773 47.4238 8.20117C47.7949 8.46484 48.2539 8.71387 48.8008 8.94824C49.3574 9.17285 50.002 9.39746 50.7344 9.62207C51.9062 9.97363 52.9316 10.3643 53.8105 10.7939C54.6992 11.2236 55.4365 11.7119 56.0225 12.2588C56.6182 12.8057 57.0625 13.4209 57.3555 14.1045C57.6582 14.7881 57.8096 15.5645 57.8096 16.4336C57.8096 17.3516 57.6289 18.1719 57.2676 18.8945C56.9062 19.6172 56.3887 20.2324 55.7148 20.7402C55.041 21.248 54.2305 21.6338 53.2832 21.8975C52.3457 22.1611 51.2959 22.293 50.1338 22.293C49.0986 22.293 48.0732 22.1562 47.0576 21.8828C46.0518 21.5996 45.1387 21.1797 44.3184 20.623C43.498 20.0566 42.8438 19.3438 42.3555 18.4844C41.8672 17.6152 41.623 16.5996 41.623 15.4375H45.666C45.666 16.1113 45.7734 16.6875 45.9883 17.166C46.2129 17.6348 46.5254 18.0205 46.9258 18.3232C47.3359 18.6162 47.8145 18.8311 48.3613 18.9678C48.9082 19.1045 49.499 19.1729 50.1338 19.1729C50.9541 19.1729 51.6279 19.0605 52.1553 18.8359C52.6924 18.6016 53.0928 18.2793 53.3564 17.8691C53.6299 17.459 53.7666 16.9902 53.7666 16.4629ZM68.1221 6.15039V8.93359H59.04V6.15039H68.1221ZM61.4717 2.25391H65.3535V17.4297C65.3535 17.8984 65.417 18.2598 65.5439 18.5137C65.6709 18.7676 65.8613 18.9385 66.1152 19.0264C66.3691 19.1143 66.6719 19.1582 67.0234 19.1582C67.2773 19.1582 67.5117 19.1436 67.7266 19.1143C67.9414 19.085 68.1221 19.0557 68.2686 19.0264L68.2832 21.9268C67.9609 22.0342 67.5947 22.1221 67.1846 22.1904C66.7842 22.2588 66.3301 22.293 65.8223 22.293C64.9531 22.293 64.1914 22.1465 63.5371 21.8535C62.8828 21.5508 62.375 21.0674 62.0137 20.4033C61.6523 19.7295 61.4717 18.8408 61.4717 17.7373V2.25391ZM74.5674 9.3877V22H70.7002V6.15039H74.3623L74.5674 9.3877ZM79.3867 6.04785L79.3281 9.65137C79.1133 9.6123 78.8691 9.58301 78.5957 9.56348C78.332 9.54395 78.083 9.53418 77.8486 9.53418C77.2529 9.53418 76.7305 9.61719 76.2812 9.7832C75.832 9.93945 75.4561 10.1689 75.1533 10.4717C74.8604 10.7744 74.6357 11.1455 74.4795 11.585C74.3232 12.0146 74.2354 12.5029 74.2158 13.0498L73.3809 12.9473C73.3809 11.9414 73.4834 11.0088 73.6885 10.1494C73.8936 9.29004 74.1914 8.53809 74.582 7.89355C74.9727 7.24902 75.4609 6.75098 76.0469 6.39941C76.6426 6.03809 77.3262 5.85742 78.0977 5.85742C78.3125 5.85742 78.542 5.87695 78.7861 5.91602C79.04 5.94531 79.2402 5.98926 79.3867 6.04785Z" fill="#7A0000"/>
</svg>
