<svg width="20" height="20" viewBox="0 0 20 20" fill="none" xmlns="http://www.w3.org/2000/svg">
<path d="M5 4.375C5 1.95859 7.23661 0 10 0C12.7634 0 15 1.95859 15 4.375V6.25H17.8571C19.0402 6.25 20 7.08984 20 8.125V16.25C20 18.3203 18.0804 20 15.7143 20H4.28571C1.91875 20 0 18.3203 0 16.25V8.125C0 7.08984 0.959375 6.25 2.14286 6.25H5V4.375ZM7.14286 6.25H12.8571V4.375C12.8571 2.99414 11.5759 1.875 10 1.875C8.42411 1.875 7.14286 2.99414 7.14286 4.375V6.25ZM6.07143 10C6.66518 10 7.14286 9.58203 7.14286 9.0625C7.14286 8.54297 6.66518 8.125 6.07143 8.125C5.47768 8.125 5 8.54297 5 9.0625C5 9.58203 5.47768 10 6.07143 10ZM13.9286 8.125C13.3348 8.125 12.8571 8.54297 12.8571 9.0625C12.8571 9.58203 13.3348 10 13.9286 10C14.5223 10 15 9.58203 15 9.0625C15 8.54297 14.5223 8.125 13.9286 8.125Z" fill="#D4A9A7"/>
</svg>
